<svg width="200" height="250" viewBox="0 0 200 250" fill="none" xmlns="http://www.w3.org/2000/svg">
<mask id="mask0_53_85" style="mask-type:alpha" maskUnits="userSpaceOnUse" x="0" y="0" width="200" height="250">
<path d="M100 50C127.614 50 150 72.3858 150 100C150 127.614 127.614 150 100 150H150C177.614 150 200 172.386 200 200C200 227.614 177.614 250 150 250H32C31.7028 250 31.4066 249.994 31.1113 249.986C30.7418 249.994 30.3714 250 30 250H19.3936C8.68288 250 0.000208392 241.317 0 230.606V82C0 64.3269 14.3269 50 32 50H100ZM117 0C117 27.6142 94.6142 50 67 50C67 22.3858 89.3858 0 117 0Z" fill="white"/>
</mask>
<g mask="url(#mask0_53_85)">
<g filter="url(#filter0_i_53_85)">
<path d="M0 150H150C177.614 150 200 172.386 200 200V200C200 227.614 177.614 250 150 250H32C14.3269 250 0 235.673 0 218V150Z" fill="#DC244C"/>
</g>
<g filter="url(#filter1_i_53_85)">
<path d="M0 82C0 64.3269 14.3269 50 32 50H100C127.614 50 150 72.3858 150 100V100C150 127.614 127.614 150 100 150H0V82Z" fill="#EB4013"/>
</g>
<g filter="url(#filter2_d_53_85)">
<path d="M0 150H30C57.6142 150 80 172.386 80 200V200C80 227.614 57.6142 250 30 250H19.3939C8.68296 250 0 241.317 0 230.606V150Z" fill="url(#paint0_linear_53_85)"/>
</g>
<g filter="url(#filter3_f_53_85)">
<ellipse cx="157.5" cy="199.5" rx="20.5" ry="32.5" fill="#FF8261"/>
</g>
<g filter="url(#filter4_i_53_85)">
<path d="M67 50C67 22.3858 89.3858 0 117 0V0V0C117 27.6142 94.6142 50 67 50V50V50Z" fill="#3BA181"/>
</g>
<g filter="url(#filter5_f_53_85)">
<ellipse cx="109.5" cy="101.5" rx="20.5" ry="32.5" fill="#FF8261"/>
</g>
<g filter="url(#filter6_i_53_85)">
<path d="M67 50C67 22.3858 89.3858 0 117 0V0V0C117 27.6142 94.6142 50 67 50V50V50Z" fill="#3BA181"/>
</g>
<g filter="url(#filter7_f_53_85)">
<path d="M92.0004 23.8553C82.8396 33.2038 79.3659 46.9681 75.6247 43.302C71.8834 39.6359 76.5161 29.5898 85.6769 20.2413C94.8377 10.8929 105.058 5.78214 108.799 9.44827C112.54 13.1144 101.161 14.5069 92.0004 23.8553Z" fill="#00FF64"/>
</g>
</g>
<defs>
<filter id="filter0_i_53_85" x="0" y="150" width="200" height="104" filterUnits="userSpaceOnUse" color-interpolation-filters="sRGB">
<feFlood flood-opacity="0" result="BackgroundImageFix"/>
<feBlend mode="normal" in="SourceGraphic" in2="BackgroundImageFix" result="shape"/>
<feColorMatrix in="SourceAlpha" type="matrix" values="0 0 0 0 0 0 0 0 0 0 0 0 0 0 0 0 0 0 127 0" result="hardAlpha"/>
<feOffset dy="4"/>
<feGaussianBlur stdDeviation="2"/>
<feComposite in2="hardAlpha" operator="arithmetic" k2="-1" k3="1"/>
<feColorMatrix type="matrix" values="0 0 0 0 0 0 0 0 0 0 0 0 0 0 0 0 0 0 0.25 0"/>
<feBlend mode="normal" in2="shape" result="effect1_innerShadow_53_85"/>
</filter>
<filter id="filter1_i_53_85" x="0" y="50" width="150" height="104" filterUnits="userSpaceOnUse" color-interpolation-filters="sRGB">
<feFlood flood-opacity="0" result="BackgroundImageFix"/>
<feBlend mode="normal" in="SourceGraphic" in2="BackgroundImageFix" result="shape"/>
<feColorMatrix in="SourceAlpha" type="matrix" values="0 0 0 0 0 0 0 0 0 0 0 0 0 0 0 0 0 0 127 0" result="hardAlpha"/>
<feOffset dy="4"/>
<feGaussianBlur stdDeviation="2"/>
<feComposite in2="hardAlpha" operator="arithmetic" k2="-1" k3="1"/>
<feColorMatrix type="matrix" values="0 0 0 0 0 0 0 0 0 0 0 0 0 0 0 0 0 0 0.25 0"/>
<feBlend mode="normal" in2="shape" result="effect1_innerShadow_53_85"/>
</filter>
<filter id="filter2_d_53_85" x="-8" y="136" width="112" height="132" filterUnits="userSpaceOnUse" color-interpolation-filters="sRGB">
<feFlood flood-opacity="0" result="BackgroundImageFix"/>
<feColorMatrix in="SourceAlpha" type="matrix" values="0 0 0 0 0 0 0 0 0 0 0 0 0 0 0 0 0 0 127 0" result="hardAlpha"/>
<feOffset dx="8" dy="2"/>
<feGaussianBlur stdDeviation="8"/>
<feComposite in2="hardAlpha" operator="out"/>
<feColorMatrix type="matrix" values="0 0 0 0 0 0 0 0 0 0 0 0 0 0 0 0 0 0 0.25 0"/>
<feBlend mode="normal" in2="BackgroundImageFix" result="effect1_dropShadow_53_85"/>
<feBlend mode="normal" in="SourceGraphic" in2="effect1_dropShadow_53_85" result="shape"/>
</filter>
<filter id="filter3_f_53_85" x="105" y="135" width="105" height="129" filterUnits="userSpaceOnUse" color-interpolation-filters="sRGB">
<feFlood flood-opacity="0" result="BackgroundImageFix"/>
<feBlend mode="normal" in="SourceGraphic" in2="BackgroundImageFix" result="shape"/>
<feGaussianBlur stdDeviation="16" result="effect1_foregroundBlur_53_85"/>
</filter>
<filter id="filter4_i_53_85" x="67" y="0" width="50" height="54" filterUnits="userSpaceOnUse" color-interpolation-filters="sRGB">
<feFlood flood-opacity="0" result="BackgroundImageFix"/>
<feBlend mode="normal" in="SourceGraphic" in2="BackgroundImageFix" result="shape"/>
<feColorMatrix in="SourceAlpha" type="matrix" values="0 0 0 0 0 0 0 0 0 0 0 0 0 0 0 0 0 0 127 0" result="hardAlpha"/>
<feOffset dy="4"/>
<feGaussianBlur stdDeviation="2"/>
<feComposite in2="hardAlpha" operator="arithmetic" k2="-1" k3="1"/>
<feColorMatrix type="matrix" values="0 0 0 0 0 0 0 0 0 0 0 0 0 0 0 0 0 0 0.25 0"/>
<feBlend mode="normal" in2="shape" result="effect1_innerShadow_53_85"/>
</filter>
<filter id="filter5_f_53_85" x="57" y="37" width="105" height="129" filterUnits="userSpaceOnUse" color-interpolation-filters="sRGB">
<feFlood flood-opacity="0" result="BackgroundImageFix"/>
<feBlend mode="normal" in="SourceGraphic" in2="BackgroundImageFix" result="shape"/>
<feGaussianBlur stdDeviation="16" result="effect1_foregroundBlur_53_85"/>
</filter>
<filter id="filter6_i_53_85" x="67" y="0" width="50" height="54" filterUnits="userSpaceOnUse" color-interpolation-filters="sRGB">
<feFlood flood-opacity="0" result="BackgroundImageFix"/>
<feBlend mode="normal" in="SourceGraphic" in2="BackgroundImageFix" result="shape"/>
<feColorMatrix in="SourceAlpha" type="matrix" values="0 0 0 0 0 0 0 0 0 0 0 0 0 0 0 0 0 0 127 0" result="hardAlpha"/>
<feOffset dy="4"/>
<feGaussianBlur stdDeviation="2"/>
<feComposite in2="hardAlpha" operator="arithmetic" k2="-1" k3="1"/>
<feColorMatrix type="matrix" values="0 0 0 0 0 0 0 0 0 0 0 0 0 0 0 0 0 0 0.25 0"/>
<feBlend mode="normal" in2="shape" result="effect1_innerShadow_53_85"/>
</filter>
<filter id="filter7_f_53_85" x="58.3245" y="-7.74512" width="67.2056" height="67.6533" filterUnits="userSpaceOnUse" color-interpolation-filters="sRGB">
<feFlood flood-opacity="0" result="BackgroundImageFix"/>
<feBlend mode="normal" in="SourceGraphic" in2="BackgroundImageFix" result="shape"/>
<feGaussianBlur stdDeviation="8" result="effect1_foregroundBlur_53_85"/>
</filter>
<linearGradient id="paint0_linear_53_85" x1="94.5" y1="192.5" x2="-2.39954e-06" y2="195.5" gradientUnits="userSpaceOnUse">
<stop stop-color="#DC244C"/>
<stop offset="1" stop-color="#EB4013"/>
</linearGradient>
</defs>
</svg>
